<?xml version="1.0" encoding="utf-8"?>
<!-- Generator: Adobe Illustrator 28.2.0, SVG Export Plug-In . SVG Version: 6.00 Build 0)  -->
<svg version="1.1" id="Capa_1" xmlns="http://www.w3.org/2000/svg" xmlns:xlink="http://www.w3.org/1999/xlink" x="0px" y="0px"
	 viewBox="0 0 40 59" style="enable-background:new 0 0 40 59;" xml:space="preserve">
<style type="text/css">
	.st0{clip-path:url(#SVGID_00000181080684040449458910000014539619510638847638_);}
	.st1{fill:#383431;}
</style>
<g>
	<g>
		<g>
			<defs>
				<rect id="SVGID_1_" width="40" height="59"/>
			</defs>
			<clipPath id="SVGID_00000133488635606688492300000007126742278479941002_">
				<use xlink:href="#SVGID_1_"  style="overflow:visible;"/>
			</clipPath>
			<g style="clip-path:url(#SVGID_00000133488635606688492300000007126742278479941002_);">
				<path class="st1" d="M17,20.5c0,1.8,1.5,3.3,3.2,3.3c1.8,0,3.2-1.5,3.2-3.3s-1.5-3.3-3.2-3.3C18.4,17.2,17,18.7,17,20.5z
					 M37.9,21h-2.5v4.7h-5.3V21h-2.7c-0.3,3.8-3.4,6.7-7.2,6.7S13,24.5,13,20.5s3.2-7.3,7.2-7.3c2.1,0,4.1,0.9,5.4,2.4H40
					C37.9,6.7,29.8,0,20.3,0C9.1,0,0,9.2,0,20.5c0,0.2,0,0.3,0,0.5v0.1c0,0.1,0,0.3,0,0.4c0,0,0,0,0,0.1C0.9,38.2,20.3,59,20.3,59
					C34.1,43.3,38.6,31.8,40,25.7h-2L37.9,21L37.9,21z"/>
			</g>
		</g>
	</g>
</g>
</svg>
