<?xml version="1.0" encoding="utf-8"?>
<!-- Generator: Adobe Illustrator 28.2.0, SVG Export Plug-In . SVG Version: 6.00 Build 0)  -->
<svg version="1.1" id="Capa_1" xmlns="http://www.w3.org/2000/svg" xmlns:xlink="http://www.w3.org/1999/xlink" x="0px" y="0px"
	 viewBox="0 0 202 46" style="enable-background:new 0 0 202 46;" xml:space="preserve">
<style type="text/css">
	.st0{fill:#383431;}
</style>
<path class="st0" d="M13.9,31.6c0.6,0,1.4-0.1,1.8-0.2v4.4c-0.9,0.2-2.1,0.5-3.2,0.5c-5.3,0-7.7-2.2-7.7-7.8V14.9H0.5v-4.3h4.3V4.2
	h5.7v6.4h4.9v4.3h-4.9v12.7C10.4,30.5,11.4,31.6,13.9,31.6z M25.3,13.6h0.1c1.8-2.5,4.5-3.6,7.3-3.6c5.8,0,9.2,3.5,9.2,10.5V36h-5.7
	V21c0-4.6-1.9-6.4-5.1-6.4s-5.8,2.4-5.8,7.3V36h-5.7V0.4h5.7V13.6z M58.5,32.5c3.2,0,5.3-1.8,5.8-4.2h5.8c-0.9,4.6-5,8.4-11.7,8.4
	c-7.8,0-12.3-5.5-12.3-13.8c0-7.5,4.5-13.1,12.2-13.1c5.8,0,10,3.3,11.4,8.6c0.5,1.6,0.7,3.5,0.7,6H51.9
	C52.1,30.2,55,32.5,58.5,32.5z M58.4,14.1c-3.4,0-5.9,2.2-6.4,6.7h12.9C64.4,16.2,61.8,14.1,58.4,14.1z M98.8,9.9
	c6.4,0,10.6,5.2,10.6,13.3s-4.1,13.3-10.5,13.3c-3.2,0-6-1.4-7.4-3.9h-0.1v12.5h-5.7V10.6h5.6v3.5h0.1C92.7,11.5,95.6,9.9,98.8,9.9z
	 M97.1,14.4c-3.7,0-6.2,3.4-6.2,8.9s2.4,8.9,6.2,8.9c3.8,0,6.3-3.5,6.3-8.9S101,14.4,97.1,14.4z M119.6,36h-5.7V0.4h5.7V36z
	 M135.4,9.9c6.7,0,10.5,3.3,10.5,9.9v9.5c0,3,0.2,5.1,0.6,6.7h-5.1c-0.2-1.1-0.4-2.3-0.4-3.5h-0.1c-1.8,2.7-4.7,4.1-8.5,4.1
	c-5.3,0-8.6-3.2-8.6-7.5c0-4.1,2.4-6.9,9.8-8c2.1-0.4,5.1-0.6,6.9-0.8v-1c0-3.8-2.1-5.2-5-5.2c-3.1,0-4.8,1.8-5,4.5h-5.6
	C125.1,13.6,128.6,9.9,135.4,9.9z M140.4,25.2V24c-1.7,0.1-4.2,0.3-5.9,0.6c-3.6,0.6-5,1.7-5,4c0,2.2,1.6,3.7,4.5,3.7
	c1.8,0,3.4-0.5,4.6-1.7C140,29.2,140.4,27.9,140.4,25.2z M162.5,9.9c6.5,0,10.9,4.1,11.4,9.9H168c-0.2-3.3-2.4-5.4-5.5-5.4
	c-4,0-6.4,3.4-6.4,8.9s2.4,9,6.4,9c3.1,0,5.2-2.5,5.4-5.9h6c-0.5,6.1-4.9,10.4-11.4,10.4c-7.5,0-12.4-5.2-12.4-13.5
	S155,9.9,162.5,9.9z M189.1,32.5c3.2,0,5.3-1.8,5.8-4.2h5.9c-0.9,4.6-5.1,8.4-11.7,8.4c-7.8,0-12.3-5.5-12.3-13.8
	c0-7.5,4.5-13.1,12.2-13.1c5.8,0,10,3.3,11.4,8.6c0.5,1.6,0.7,3.5,0.7,6h-18.7C182.7,30.2,185.6,32.5,189.1,32.5z M189,14.1
	c-3.4,0-5.9,2.2-6.4,6.7h12.9C195,16.2,192.4,14.1,189,14.1z"/>
</svg>
