<?xml version="1.0" encoding="utf-8"?>
<!-- Generator: Adobe Illustrator 28.2.0, SVG Export Plug-In . SVG Version: 6.00 Build 0)  -->
<svg version="1.1" id="Capa_1" xmlns="http://www.w3.org/2000/svg" xmlns:xlink="http://www.w3.org/1999/xlink" x="0px" y="0px"
	 viewBox="0 0 32 33" style="enable-background:new 0 0 32 33;" xml:space="preserve">
<style type="text/css">
	.st0{fill:#FFFFFF;}
</style>
<g>
	<g id="Capa_1_00000078020522147275746210000011132692213195431308_">
		<path id="Vector" class="st0" d="M3.4,23.4c-0.7,0-1.3-0.6-1.3-1.3v-7.6c-0.3-0.1-0.6-0.2-1-0.2v7.8c0,1.3,1,2.3,2.2,2.3h12.7
			c-0.1-0.3-0.2-0.6-0.2-1H3.4z"/>
		<path id="Vector_2" class="st0" d="M12.5,1c1.6,0,2.9,1.1,3.1,2.7h1c-0.3-2-2-3.6-4.1-3.6S8.7,1.6,8.4,3.6h1
			C9.6,2.1,10.9,1,12.5,1z"/>
		<path id="Vector_3" class="st0" d="M2.1,13.5c3.4,0.9,6.9,1.3,10.4,1.3c3.5,0,7-0.4,10.4-1.3c0.3-0.1,0.6-0.2,1-0.2
			c0.3-0.1,0.5-0.2,0.8-0.2c0.2-0.1,0.3-0.3,0.3-0.5V6.1c0-0.8-0.6-1.4-1.4-1.4H1.4C0.6,4.6,0,5.3,0,6.1v6.5C0,12.8,0.1,13,0.3,13
			c0.3,0.1,0.5,0.2,0.8,0.2C1.5,13.4,1.8,13.4,2.1,13.5L2.1,13.5z M1,6.1c0-0.3,0.2-0.5,0.5-0.5h22.1c0.3,0,0.5,0.2,0.5,0.5v6.1
			c-0.1,0-0.2,0.1-0.3,0.1c-1.1,0.3-2.2,0.6-3.3,0.8c-5.3,1-10.7,1-15.9,0c-1.1-0.2-2.2-0.5-3.3-0.8c-0.1,0-0.2-0.1-0.3-0.1V6.1z"/>
		<path id="Vector_4" class="st0" d="M10.5,15.8V17c0,1.2,1,2.2,2.1,2.2s2.1-1,2.1-2.2v-1.2h-1V17c0,0.7-0.5,1.2-1.2,1.2
			c-0.7,0-1.2-0.5-1.2-1.2v-1.2H10.5L10.5,15.8z"/>
		<path id="Vector_5" class="st0" d="M31.5,17.7c-2.8,0-5.3-1.1-6.6-2.8c-0.1-0.1-0.2-0.2-0.4-0.2c-0.1,0-0.3,0.1-0.4,0.2
			c-0.1,0.1-0.2,0.2-0.3,0.4c-0.3,0.3-0.6,0.6-1,0.9c-1.4,1-3.3,1.6-5.4,1.6c-0.3,0-0.5,0.2-0.5,0.5v2c0,1.1,0.1,2.2,0.4,3.2
			c0.1,0.3,0.2,0.7,0.3,1c1,3.5,3.4,6.6,6.6,8.5c0.1,0,0.2,0.1,0.2,0.1c0.1,0,0.2,0,0.2-0.1c4.5-2.6,7.2-7.5,7.2-12.7v-2
			C32,17.9,31.8,17.7,31.5,17.7L31.5,17.7z M31,20.2c0,4.8-2.5,9.3-6.5,11.8c-2.8-1.7-4.9-4.4-5.9-7.6c-0.1-0.3-0.2-0.6-0.3-1
			c-0.3-1-0.4-2.1-0.4-3.2v-1.5c1.8-0.1,3.5-0.6,4.9-1.4c0.3-0.2,0.7-0.4,1-0.7c0.2-0.2,0.5-0.4,0.7-0.6c1.5,1.6,3.9,2.6,6.5,2.8
			L31,20.2L31,20.2z"/>
		<path id="Vector_6" class="st0" d="M22.4,24.2l-0.6-0.8l-0.2-0.3c-0.2-0.2-0.5-0.2-0.7-0.1c-0.1,0.1-0.2,0.3-0.2,0.4
			c0,0.1,0,0.2,0.1,0.3l0.5,0.7l2.5,3.3c0.1,0.1,0.2,0.2,0.4,0.2c0,0,0,0,0,0c0.2,0,0.3-0.1,0.4-0.2l4.5-6.5
			c0.2-0.2,0.1-0.5-0.1-0.7c-0.2-0.2-0.5-0.1-0.7,0.1l-4.1,5.9L22.4,24.2L22.4,24.2z"/>
	</g>
</g>
</svg>
