<?xml version="1.0" encoding="utf-8"?>
<!-- Generator: Adobe Illustrator 28.2.0, SVG Export Plug-In . SVG Version: 6.00 Build 0)  -->
<svg version="1.1" id="Capa_1" xmlns="http://www.w3.org/2000/svg" xmlns:xlink="http://www.w3.org/1999/xlink" x="0px" y="0px"
	 viewBox="0 0 35 32" style="enable-background:new 0 0 35 32;" xml:space="preserve">
<style type="text/css">
	.st0{fill:#FFFFFF;}
</style>
<g>
	<g id="Capa_1_00000041296923823840183780000000548226854302352273_">
		<path id="Vector" class="st0" d="M4.5,3.6h3.2v3l0.9-1V3.1c0-0.3-0.2-0.5-0.5-0.5H4.1c-0.3,0-0.5,0.2-0.5,0.5v7.7l0.9-1L4.5,3.6
			L4.5,3.6z"/>
		<path id="Vector_2" class="st0" d="M16.4,1.8l2,2.1c0.1-0.3,0.3-0.6,0.6-0.7l-2-2.1l-0.9-1c0,0,0,0-0.1-0.1
			C15.8,0,15.5,0,15.4,0.1L8.6,7L7.7,7.9l-3.2,3.3l-0.9,1l-3.5,3.5c-0.2,0.2-0.2,0.5,0,0.7c0.1,0.1,0.2,0.1,0.3,0.1
			c0.1,0,0.2,0,0.3-0.1L15.7,1.2L16.4,1.8L16.4,1.8z"/>
		<path id="Vector_3" class="st0" d="M26.8,22.1V31h-7.3V20.5c0-0.3-0.2-0.5-0.5-0.5h-6.9c-0.3,0-0.5,0.2-0.5,0.5V31H4.5V16
			c0-0.3-0.2-0.5-0.5-0.5c-0.3,0-0.5,0.2-0.5,0.5v15.5c0,0.3,0.2,0.5,0.5,0.5h8.2c0.3,0,0.5-0.2,0.5-0.5V21h5.9v10.5
			c0,0.3,0.2,0.5,0.5,0.5h8.2c0.3,0,0.5-0.2,0.5-0.5v-9.4c-0.2,0-0.3,0.1-0.5,0.1C27.2,22.2,27,22.2,26.8,22.1z"/>
		<path id="Vector_4" class="st0" d="M34.5,4.2c-3.2,0-5.6-0.9-6.8-2.5c-0.1-0.1-0.2-0.2-0.4-0.2c-0.1,0-0.3,0.1-0.4,0.2
			c-1.2,1.6-3.6,2.5-6.8,2.5c0,0,0,0,0,0c-0.2,0-0.4,0.2-0.4,0.5V13c0,1.7,0.8,3.2,2.2,4.1l5,3.4l0.2,0.1c0.1,0.1,0.2,0.1,0.3,0.1
			c0.1,0,0.2,0,0.3-0.1l0.2-0.1l5-3.4c1.4-0.9,2.2-2.5,2.2-4.1V4.7C35,4.5,34.8,4.3,34.5,4.2L34.5,4.2z M34.1,13
			c0,1.3-0.7,2.6-1.8,3.3l-4.5,3l-0.5,0.3l-0.5-0.3l-4.5-3c-1.1-0.7-1.8-2-1.8-3.3V5.2c0.1,0,0.3,0,0.4,0c2.8-0.1,5-0.9,6.3-2.4
			c1.4,1.5,3.7,2.3,6.7,2.4V13z"/>
		<path id="Vector_5" class="st0" d="M24.1,10.5c-0.2-0.2-0.5-0.2-0.7,0c-0.2,0.2-0.2,0.5,0,0.7l3.3,3.8c0.1,0.1,0.2,0.2,0.4,0.2
			c0,0,0,0,0,0c0.1,0,0.3-0.1,0.4-0.2l0.8-1.1l0.6-0.8l3.4-4.7c0.2-0.2,0.1-0.5-0.1-0.7c-0.2-0.2-0.5-0.1-0.7,0.1l-3.4,4.6l-0.6,0.8
			L27,13.9L24.1,10.5z"/>
	</g>
</g>
</svg>
