<svg width="35" height="32" viewBox="0 0 35 32" fill="none" xmlns="http://www.w3.org/2000/svg">
<g id="Capa_1" clip-path="url(#clip0_2044_158)">
<path id="Vector" d="M4.54714 3.56422H7.70127V6.59556L8.64457 5.63436V3.08279C8.64457 2.81718 8.4344 2.60303 8.17373 2.60303H4.07631C3.81564 2.60303 3.60547 2.81884 3.60547 3.08279V10.769L4.54877 9.80784V3.56422H4.54714Z" fill="#FFD95D"/>
<path id="Vector_2" d="M16.3681 1.83958L18.3981 3.90806C18.5366 3.61256 18.7467 3.35691 19.0058 3.16932L16.9758 1.10084L16.0341 0.141303C16.0113 0.118062 15.9869 0.098141 15.9608 0.0798799C15.7783 -0.0429671 15.5291 -0.023046 15.3678 0.141303L8.64247 6.99418L7.74479 7.90889L4.54505 11.1677L3.60174 12.1289L0.138074 15.6615C-0.0460248 15.8491 -0.0460248 16.1529 0.138074 16.3405C0.230938 16.4335 0.351499 16.4816 0.472059 16.4816C0.59262 16.4816 0.71318 16.4351 0.806044 16.3405L15.7018 1.15894L16.3681 1.83792V1.83958Z" fill="#FFD95D"/>
<path id="Vector_3" d="M26.8443 22.1158V31.0405H19.5928V20.5404C19.5928 20.2748 19.3826 20.0606 19.1219 20.0606H12.2712C12.0105 20.0606 11.8003 20.2764 11.8003 20.5404V31.0405H4.54714V16C4.54714 15.7344 4.33698 15.5203 4.07631 15.5203C3.81564 15.5203 3.60547 15.7361 3.60547 16V31.5203C3.60547 31.7859 3.81564 32 4.07631 32H12.2712C12.5318 32 12.742 31.7859 12.742 31.5203V21.0202H18.6495V31.5203C18.6495 31.7859 18.8596 32 19.1203 32H27.3151C27.5758 32 27.786 31.7859 27.786 31.5203V22.1158C27.6312 22.1557 27.4732 22.1772 27.3151 22.1772C27.1571 22.1772 26.9991 22.1557 26.8443 22.1158Z" fill="#FFD95D"/>
<path id="Vector_4" d="M34.5295 4.2498C31.3086 4.2498 28.8811 3.37161 27.6902 1.77958C27.6006 1.66006 27.4621 1.59033 27.3154 1.59033C27.1688 1.59033 27.0303 1.66006 26.9407 1.77958C25.7514 3.37327 23.3223 4.2498 20.1014 4.2498C20.0916 4.2498 20.0818 4.25146 20.072 4.25312C19.826 4.26807 19.6289 4.47558 19.6289 4.73123V13.0267C19.6289 14.6935 20.4451 16.2357 21.8137 17.1504L26.843 20.5154L27.0548 20.6582C27.133 20.7113 27.2242 20.7362 27.3138 20.7362C27.4034 20.7362 27.4947 20.7097 27.5729 20.6582L27.7847 20.5154L32.814 17.1504C34.1809 16.2357 34.9987 14.6935 34.9987 13.0267V4.73123C34.9987 4.46562 34.7886 4.25146 34.5279 4.25146L34.5295 4.2498ZM34.0587 13.0267C34.0587 14.3697 33.4005 15.6115 32.2992 16.3469L27.7863 19.3666L27.3154 19.6821L26.8446 19.3666L22.3317 16.3469C21.2304 15.6098 20.5722 14.3681 20.5722 13.0267V5.20602C20.7139 5.2027 20.8508 5.19606 20.9893 5.18942C23.8241 5.05163 25.9877 4.23984 27.3154 2.81216C28.7068 4.30957 31.017 5.13132 34.0587 5.20602V13.0267Z" fill="#FFD95D"/>
<path id="Vector_5" d="M24.0613 10.5301C23.8902 10.3309 23.5921 10.3109 23.3966 10.4869C23.2011 10.6612 23.1815 10.965 23.3542 11.1642L26.6745 15.014C26.7641 15.1186 26.8928 15.1767 27.028 15.1767C27.0345 15.1767 27.0411 15.1767 27.046 15.1767C27.1877 15.1717 27.3197 15.1003 27.4044 14.9841L28.2027 13.8984L28.7729 13.1215L32.217 8.43502C32.3734 8.22253 32.3311 7.92205 32.1225 7.76268C31.914 7.60332 31.6191 7.64648 31.4627 7.85897L28.1 12.4359L27.5298 13.2128L26.9987 13.9366L24.0613 10.5301Z" fill="#FFD95D"/>
</g>
<defs>
<clipPath id="clip0_2044_158">
<rect width="35" height="32" fill="white"/>
</clipPath>
</defs>
</svg>
