<?xml version="1.0" encoding="utf-8"?>
<!-- Generator: Adobe Illustrator 28.2.0, SVG Export Plug-In . SVG Version: 6.00 Build 0)  -->
<svg version="1.1" id="Capa_1" xmlns="http://www.w3.org/2000/svg" xmlns:xlink="http://www.w3.org/1999/xlink" x="0px" y="0px"
	 viewBox="0 0 31 33" style="enable-background:new 0 0 31 33;" xml:space="preserve">
<style type="text/css">
	.st0{fill:#FFFFFF;}
</style>
<g>
	<g id="Capa_1_00000021118338157652308090000000926577431783111050_">
		<path id="Vector" class="st0" d="M1.2,28.1C1.1,28.1,1,28,1,27.9V1.2C1,1.1,1.1,1,1.2,1h20c0.1,0,0.2,0.1,0.2,0.2v9.2
			c0.2-0.1,0.3-0.1,0.5-0.1c0.2,0,0.3,0,0.5,0.1V1.2c0-0.7-0.5-1.2-1.2-1.2h-20C0.5,0,0,0.5,0,1.2v26.7C0,28.5,0.5,29,1.2,29h14.6
			c-0.3-0.3-0.5-0.7-0.7-1H1.2z"/>
		<path id="Vector_2" class="st0" d="M17.3,6.4H5.1c-0.3,0-0.5,0.2-0.5,0.5c0,0.3,0.2,0.5,0.5,0.5h12.2c0.3,0,0.5-0.2,0.5-0.5
			C17.8,6.6,17.6,6.4,17.3,6.4z"/>
		<path id="Vector_3" class="st0" d="M17.8,12c0-0.3-0.2-0.5-0.5-0.5H5.1c-0.3,0-0.5,0.2-0.5,0.5s0.2,0.5,0.5,0.5h12.2
			C17.6,12.5,17.8,12.3,17.8,12z"/>
		<path id="Vector_4" class="st0" d="M5.1,17.6h6.7v-1H5.1c-0.3,0-0.5,0.2-0.5,0.5C4.6,17.3,4.9,17.5,5.1,17.6L5.1,17.6z"/>
		<path id="Vector_5" class="st0" d="M5.1,22.6h7.4c-0.1-0.3-0.2-0.7-0.2-1H5.1c-0.3,0-0.5,0.2-0.5,0.5S4.9,22.6,5.1,22.6L5.1,22.6z
			"/>
		<path id="Vector_6" class="st0" d="M30.5,14.9c-3.3,0-6.4-1.3-8.1-3.3c0,0-0.1-0.1-0.1-0.1c-0.1-0.1-0.2-0.2-0.4-0.2
			c-0.2,0-0.3,0.1-0.4,0.2c0,0-0.1,0.1-0.1,0.1c-1.7,2-4.7,3.3-8.1,3.3c-0.3,0-0.5,0.2-0.5,0.5v2.4c0,1.3,0.1,2.6,0.4,3.8
			c0.1,0.3,0.2,0.7,0.3,1c0.6,2,1.5,3.8,2.7,5.4c0.2,0.3,0.5,0.7,0.8,1c1.3,1.5,2.9,2.9,4.7,3.9c0.1,0,0.2,0.1,0.2,0.1
			c0.1,0,0.2,0,0.3-0.1C27.6,29.8,31,24,31,17.8v-2.4C31,15.1,30.8,14.9,30.5,14.9L30.5,14.9z M30,17.8c0,5.8-3.1,11.2-8.1,14.1
			c-1.3-0.8-2.5-1.8-3.6-2.9c-0.3-0.3-0.6-0.6-0.9-1c-1.3-1.6-2.3-3.5-2.9-5.4c-0.1-0.3-0.2-0.7-0.3-1c-0.3-1.2-0.5-2.5-0.5-3.8
			v-1.9c3-0.1,5.7-1.2,7.6-2.8c0.2-0.2,0.3-0.3,0.5-0.5c0.2,0.2,0.3,0.3,0.5,0.5c1.8,1.7,4.6,2.7,7.6,2.8V17.8L30,17.8z"/>
		<path id="Vector_7" class="st0" d="M21.6,25.8l-0.1-0.2l-3.4-4.3c-0.2-0.2-0.5-0.3-0.7-0.1c-0.1,0.1-0.2,0.2-0.2,0.4
			c0,0.1,0,0.2,0.1,0.3l0.4,0.5l3.5,4.5c0.1,0.1,0.1,0.1,0.2,0.2c0.1,0,0.1,0,0.2,0c0,0,0,0,0,0c0.2,0,0.3-0.1,0.4-0.2l0.4-0.6
			l5.3-7.5c0.2-0.2,0.1-0.5-0.1-0.7c-0.2-0.2-0.5-0.1-0.7,0.1l-4.5,6.3L21.6,25.8z"/>
	</g>
</g>
</svg>
