<?xml version="1.0" encoding="utf-8"?>
<!-- Generator: Adobe Illustrator 28.2.0, SVG Export Plug-In . SVG Version: 6.00 Build 0)  -->
<svg version="1.1" id="Capa_1" xmlns="http://www.w3.org/2000/svg" xmlns:xlink="http://www.w3.org/1999/xlink" x="0px" y="0px"
	 viewBox="0 0 37 22" style="enable-background:new 0 0 37 22;" xml:space="preserve">
<style type="text/css">
	.st0{fill:#FFFFFF;}
</style>
<g>
	<g id="Capa_1_00000153699391729244075400000013210644811316667265_">
		<path id="Vector" class="st0" d="M15.2,12.4l3.3,2.1c0.1,0,0.2,0.1,0.2,0.1s0.2,0,0.2-0.1l3.3-2.1c0.9-0.6,1.4-1.5,1.4-2.6v-5
			c0-0.2-0.2-0.4-0.4-0.4c-2,0-3.5-0.5-4.2-1.4c-0.1-0.1-0.2-0.2-0.4-0.2c-0.1,0-0.3,0.1-0.4,0.2c-0.7,0.9-2.2,1.4-4.2,1.4
			c-0.2,0-0.4,0.2-0.4,0.4v5C13.8,10.9,14.3,11.9,15.2,12.4z M14.7,5.3c1.8-0.1,3.2-0.5,4.1-1.4c0.9,0.8,2.3,1.3,4.1,1.4v4.6
			c0,0.8-0.4,1.5-1,1.9l-3.1,2l-3.1-2c-0.7-0.4-1-1.1-1-1.9V5.3z"/>
		<path id="Vector_2" class="st0" d="M18.1,11c0.1,0.1,0.2,0.2,0.3,0.2h0c0.1,0,0.3-0.1,0.3-0.2l2.7-3.6c0.1-0.2,0.1-0.5-0.1-0.6
			c-0.2-0.1-0.5-0.1-0.6,0.1L18.4,10L17,8.3c-0.2-0.2-0.4-0.2-0.6-0.1c-0.2,0.1-0.2,0.4-0.1,0.6L18.1,11L18.1,11z"/>
		<path id="Vector_3" class="st0" d="M26.9,3.1c-0.2,0-0.4,0.2-0.4,0.4v5.2c0,0.2,0.2,0.4,0.4,0.4h6.7c0.2,0,0.4-0.2,0.4-0.4
			c0-0.2-0.2-0.4-0.4-0.4h-6.3V3.6C27.4,3.3,27.2,3.1,26.9,3.1L26.9,3.1z"/>
		<path id="Vector_4" class="st0" d="M35.9,6.9C35.9,6.9,35.9,6.9,35.9,6.9L31.7,1c0,0,0,0,0,0c-0.5-0.6-1.3-1-2.2-1h-29
			C0.2,0,0,0.2,0,0.4s0.2,0.4,0.4,0.4h29c0.6,0,1.1,0.2,1.5,0.7l4.2,5.8c0.6,1,1,2.1,1,3.3v6.7c0,0.4-0.3,0.7-0.7,0.7h-1.8
			C33.4,16.3,31.9,15,30,15c-1.9,0-3.4,1.4-3.6,3.1h-8.6C17.5,16.3,16,15,14.1,15c-1.9,0-3.4,1.4-3.6,3.1H8.7
			c-0.4,0-0.7-0.3-0.7-0.7v-6.9h2.3c0.2,0,0.4-0.2,0.4-0.4c0-0.2-0.2-0.4-0.4-0.4H4.8c-0.2,0-0.4,0.2-0.4,0.4c0,0.2,0.2,0.4,0.4,0.4
			H7v6.9c0,0.9,0.7,1.6,1.6,1.6h1.9c0.2,1.7,1.8,3.1,3.6,3.1s3.4-1.4,3.6-3.1h8.6c0.2,1.7,1.8,3.1,3.6,3.1s3.4-1.4,3.6-3.1h1.8
			c0.9,0,1.6-0.7,1.6-1.6v-6.7C37,9.3,36.6,8,35.9,6.9L35.9,6.9z M32.8,18.5c0,0.1,0,0.3,0,0.4c-0.2,1.3-1.3,2.2-2.7,2.2
			c-1.4,0-2.5-1-2.7-2.2c0-0.1,0-0.3,0-0.4c0-0.1,0-0.3,0-0.4c0.2-1.3,1.3-2.2,2.7-2.2c1.4,0,2.5,1,2.7,2.2
			C32.7,18.2,32.8,18.3,32.8,18.5z M16.9,18.5c0,0.1,0,0.3,0,0.4c-0.2,1.3-1.3,2.2-2.7,2.2s-2.5-1-2.7-2.2c0-0.1,0-0.3,0-0.4
			c0-0.1,0-0.3,0-0.4c0.2-1.3,1.3-2.2,2.7-2.2s2.5,1,2.7,2.2C16.9,18.2,16.9,18.3,16.9,18.5z"/>
		<path id="Vector_5" class="st0" d="M10.1,6.8c0-0.2-0.2-0.4-0.4-0.4H3.4c-0.2,0-0.4,0.2-0.4,0.4s0.2,0.4,0.4,0.4h6.3
			C9.9,7.2,10.1,7,10.1,6.8z"/>
		<path id="Vector_6" class="st0" d="M9.6,3.6c0-0.2-0.2-0.4-0.4-0.4H1.9c-0.2,0-0.4,0.2-0.4,0.4C1.5,3.9,1.7,4,1.9,4h7.3
			C9.4,4,9.6,3.9,9.6,3.6z"/>
	</g>
</g>
</svg>
