<svg width="37" height="22" viewBox="0 0 37 22" fill="none" xmlns="http://www.w3.org/2000/svg">
<g id="Capa_1" clip-path="url(#clip0_2044_180)">
<path id="Vector" d="M15.2474 12.4403L18.5625 14.5463C18.6361 14.5938 18.722 14.6161 18.8064 14.6161C18.8908 14.6161 18.9767 14.5924 19.0503 14.5463L22.3654 12.4403C23.2721 11.8644 23.8121 10.8953 23.8121 9.84594V4.86355C23.8121 4.62608 23.6142 4.43462 23.3687 4.43462C21.379 4.43462 19.8833 3.92703 19.1593 3.00684C19.0749 2.89998 18.9445 2.83765 18.8064 2.83765C18.6684 2.83765 18.538 2.89998 18.4536 3.00684C17.7295 3.92852 16.2338 4.43462 14.2441 4.43462C13.9987 4.43462 13.8008 4.62608 13.8008 4.86355V9.84594C13.8008 10.8953 14.3423 11.8644 15.2474 12.4403ZM14.6875 5.28506C16.5069 5.21976 17.9136 4.74927 18.8064 3.91071C19.6992 4.74927 21.106 5.21976 22.9254 5.28506V9.84594C22.9254 10.6044 22.5342 11.3064 21.8791 11.7219L18.8064 13.6736L15.7337 11.7219C15.0787 11.3049 14.6875 10.6044 14.6875 9.84594V5.28506Z" fill="#FFD95D"/>
<path id="Vector_2" d="M18.085 11.0096C18.1693 11.1105 18.2967 11.1699 18.4301 11.1699H18.4378C18.5743 11.1669 18.7032 11.1046 18.7845 10.9977L21.532 7.44758C21.6793 7.2576 21.6394 6.98897 21.443 6.84649C21.2467 6.70401 20.969 6.74259 20.8217 6.93257L18.4163 10.0404L16.9651 8.30098C16.8117 8.11694 16.531 8.08726 16.3407 8.23716C16.1505 8.38558 16.1198 8.65719 16.2748 8.84122L18.085 11.0111V11.0096Z" fill="#FFD95D"/>
<path id="Vector_3" d="M26.9443 3.13013C26.6989 3.13013 26.501 3.32159 26.501 3.55905V8.72697C26.501 8.96444 26.6989 9.1559 26.9443 9.1559H33.6804C33.9258 9.1559 34.1237 8.96444 34.1237 8.72697C34.1237 8.4895 33.9258 8.29804 33.6804 8.29804H27.3877V3.56054C27.3877 3.32307 27.1898 3.13161 26.9443 3.13161V3.13013Z" fill="#FFD95D"/>
<path id="Vector_4" d="M35.8847 6.87323C35.8847 6.87323 35.8771 6.86135 35.8725 6.85542L31.6676 1.02111C31.6615 1.0122 31.6553 1.00329 31.6477 0.995874C31.1153 0.363613 30.3253 0.00147341 29.4831 0.00147341H0.443343C0.197894 -1.07652e-05 0 0.191448 0 0.428917C0 0.666386 0.197894 0.857845 0.443343 0.857845H29.4831C30.0522 0.857845 30.5861 1.10125 30.9497 1.52424L35.1376 7.33629C35.7758 8.32921 36.1133 9.47202 36.1133 10.6416V17.3456C36.1133 17.733 35.7881 18.0476 35.3877 18.0476H33.6143C33.395 16.3082 31.8594 14.9576 30.0032 14.9576C28.1469 14.9576 26.6129 16.3096 26.3935 18.0476H17.7583C17.5389 16.3082 16.0033 14.9576 14.1486 14.9576C12.294 14.9576 10.7584 16.3096 10.5375 18.0476H8.6613C8.26091 18.0476 7.93569 17.733 7.93569 17.3456V10.413H10.2214C10.4669 10.413 10.6648 10.2215 10.6648 9.98407C10.6648 9.7466 10.4669 9.55514 10.2214 9.55514H4.81235C4.5669 9.55514 4.369 9.7466 4.369 9.98407C4.369 10.2215 4.5669 10.413 4.81235 10.413H7.04594V17.3456C7.04594 18.2064 7.77002 18.907 8.65977 18.907H10.5359C10.7553 20.6464 12.2909 21.997 14.1471 21.997C16.0033 21.997 17.5374 20.6449 17.7567 18.907H26.392C26.6113 20.6464 28.1469 21.997 30.0016 21.997C31.8563 21.997 33.3919 20.6449 33.6128 18.907H35.3862C36.2759 18.907 37 18.2064 37 17.3456V10.6416C37 9.30728 36.6149 8.00417 35.8847 6.87174V6.87323ZM32.7522 18.4795C32.7522 18.6264 32.7368 18.7689 32.7123 18.9084C32.4991 20.1715 31.3654 21.1406 30.0001 21.1406C28.6348 21.1406 27.5011 20.1715 27.2879 18.9084C27.2649 18.7689 27.248 18.625 27.248 18.4795C27.248 18.3341 27.2633 18.1901 27.2879 18.0506C27.5011 16.7875 28.6348 15.8184 30.0001 15.8184C31.3654 15.8184 32.4991 16.7875 32.7123 18.0506C32.7353 18.1901 32.7522 18.3341 32.7522 18.4795ZM16.8961 18.4795C16.8961 18.6264 16.8808 18.7689 16.8563 18.9084C16.643 20.1715 15.5093 21.1406 14.144 21.1406C12.7787 21.1406 11.6451 20.1715 11.4318 18.9084C11.4088 18.7689 11.3919 18.625 11.3919 18.4795C11.3919 18.3341 11.4073 18.1901 11.4318 18.0506C11.6451 16.7875 12.7787 15.8184 14.144 15.8184C15.5093 15.8184 16.643 16.7875 16.8563 18.0506C16.8793 18.1901 16.8961 18.3341 16.8961 18.4795Z" fill="#FFD95D"/>
<path id="Vector_5" d="M10.1431 6.80051C10.1431 6.56304 9.94522 6.37158 9.69977 6.37158H3.35643C3.11098 6.37158 2.91309 6.56304 2.91309 6.80051C2.91309 7.03798 3.11098 7.22944 3.35643 7.22944H9.69977C9.94522 7.22944 10.1431 7.03798 10.1431 6.80051Z" fill="#FFD95D"/>
<path id="Vector_6" d="M9.62283 3.61545C9.62283 3.37798 9.42494 3.18652 9.17949 3.18652H1.90037C1.65493 3.18652 1.45703 3.37798 1.45703 3.61545C1.45703 3.85292 1.65493 4.04438 1.90037 4.04438H9.17949C9.42494 4.04438 9.62283 3.85292 9.62283 3.61545Z" fill="#FFD95D"/>
</g>
<defs>
<clipPath id="clip0_2044_180">
<rect width="37" height="22" fill="white"/>
</clipPath>
</defs>
</svg>
