<?xml version="1.0" encoding="utf-8"?>
<!-- Generator: Adobe Illustrator 28.2.0, SVG Export Plug-In . SVG Version: 6.00 Build 0)  -->
<svg version="1.1" id="Capa_1" xmlns="http://www.w3.org/2000/svg" xmlns:xlink="http://www.w3.org/1999/xlink" x="0px" y="0px"
	 viewBox="0 0 23 23" style="enable-background:new 0 0 23 23;" xml:space="preserve">
<style type="text/css">
	.st0{clip-path:url(#SVGID_00000067915516526966130790000009472692058867710382_);}
	.st1{fill:#DB914E;}
</style>
<g>
	<defs>
		<rect id="SVGID_1_" width="23" height="23"/>
	</defs>
	<clipPath id="SVGID_00000029011358298910894580000006199327529311675824_">
		<use xlink:href="#SVGID_1_"  style="overflow:visible;"/>
	</clipPath>
	<g id="Layer_1" style="clip-path:url(#SVGID_00000029011358298910894580000006199327529311675824_);">
		<path id="Vector" class="st1" d="M11.3,23C9.6,23,7.8,23,6,23c-3.4-0.2-5.8-2.5-5.9-5.8C0,13.4,0,9.6,0.1,5.8
			c0.1-3.1,2.3-5.4,5.3-5.6c4-0.2,8.1-0.2,12.1,0c3,0.2,5.1,2.5,5.3,5.5c0.2,3.8,0.2,7.7,0,11.5c-0.1,3.3-2.5,5.5-5.8,5.7
			C15.2,23.1,13.2,23,11.3,23L11.3,23L11.3,23z M11.6,2.1C11.6,2.1,11.6,2.1,11.6,2.1c-1.7,0-3.4-0.1-5.1,0C3.7,2.2,2.1,3.8,2.1,6.6
			c-0.1,3.3-0.1,6.6,0,10c0.1,2.7,1.7,4.4,4.3,4.5c3.4,0.1,6.8,0.1,10.3,0c2.5-0.1,4.2-1.6,4.3-4.1c0.1-3.5,0.1-7.1,0-10.6
			c-0.1-2.6-1.8-4.2-4.5-4.2C14.8,2,13.2,2.1,11.6,2.1z"/>
		<path id="Vector_2" class="st1" d="M11.5,5.6c3.4,0,6,2.6,5.9,6c0,3.2-2.7,5.9-5.9,5.9c-3.3,0-6-2.7-6-6C5.6,8.2,8.2,5.6,11.5,5.6
			L11.5,5.6z M11.5,15.4c2.1,0,3.9-1.8,3.8-3.9c-0.1-2.1-1.8-3.8-3.8-3.8c-2.1,0-3.9,1.7-3.9,3.9C7.7,13.7,9.4,15.4,11.5,15.4
			L11.5,15.4z"/>
		<path id="Vector_3" class="st1" d="M18.8,4.7c0,0.7-0.6,1.4-1.4,1.4s-1.4-0.6-1.4-1.4c0-0.7,0.6-1.4,1.4-1.4S18.8,3.9,18.8,4.7z"
			/>
	</g>
</g>
</svg>
