<svg width="23" height="23" viewBox="0 0 23 23" fill="none" xmlns="http://www.w3.org/2000/svg">
<g id="Layer_1" clip-path="url(#clip0_2044_154)">
<path id="Vector" d="M11.3264 22.9685C9.56435 22.9685 7.79863 23.0495 6.0422 22.9508C2.68927 22.7636 0.254077 20.4907 0.116464 17.1675C-0.0406754 13.3805 -0.0369561 9.57685 0.116464 5.78992C0.242919 2.68365 2.37592 0.343706 5.44619 0.169583C9.48346 -0.058545 13.5523 -0.0529582 17.5915 0.164928C20.5725 0.326014 22.7259 2.63616 22.8636 5.66329C23.0374 9.50143 23.0486 13.3591 22.8812 17.1973C22.738 20.486 20.3651 22.731 17.0912 22.9359C15.1767 23.056 13.2492 22.9582 11.3273 22.9582V22.9675L11.3264 22.9685ZM11.6044 2.06445C11.6044 2.06445 11.6044 2.06817 11.6044 2.07003C9.89444 2.07003 8.18078 2.00392 6.47457 2.08493C3.73904 2.21529 2.11279 3.83919 2.05142 6.58139C1.97796 9.8981 1.96587 13.2185 2.05886 16.5343C2.13417 19.229 3.74648 20.9162 6.34718 20.9907C9.76427 21.0894 13.1888 21.0876 16.6059 20.987C19.1406 20.9116 20.8226 19.3482 20.9109 16.9021C21.0383 13.375 21.0411 9.83664 20.9147 6.30857C20.8198 3.67531 19.0922 2.15849 16.4134 2.07376C14.8113 2.02348 13.2074 2.06445 11.6044 2.06445Z" fill="#FFD95D"/>
<path id="Vector_2" d="M11.4864 5.5708C14.8524 5.57173 17.4531 8.19288 17.4317 11.5636C17.4113 14.8049 14.7455 17.4698 11.5171 17.4763C8.2358 17.4828 5.53189 14.7397 5.55978 11.4332C5.58768 8.16681 8.21349 5.56987 11.4874 5.5708H11.4864ZM11.545 15.3626C13.6845 15.3421 15.4094 13.5618 15.3554 11.4323C15.3024 9.36425 13.5962 7.66865 11.5385 7.63885C9.4269 7.60906 7.66768 9.36891 7.6621 11.5189C7.65653 13.6633 9.39436 15.384 11.546 15.3626H11.545Z" fill="#FFD95D"/>
<path id="Vector_3" d="M18.7839 4.69025C18.7839 5.43889 18.1786 6.04506 17.431 6.04506C16.6834 6.04506 16.0781 5.43889 16.0781 4.69025C16.0781 3.94162 16.6834 3.33545 17.431 3.33545C18.1786 3.33545 18.7839 3.94162 18.7839 4.69025Z" fill="#FFD95D"/>
</g>
<defs>
<clipPath id="clip0_2044_154">
<rect width="23" height="23" fill="white"/>
</clipPath>
</defs>
</svg>
