<?xml version="1.0" encoding="utf-8"?>
<!-- Generator: Adobe Illustrator 28.2.0, SVG Export Plug-In . SVG Version: 6.00 Build 0)  -->
<svg version="1.1" id="Capa_1" xmlns="http://www.w3.org/2000/svg" xmlns:xlink="http://www.w3.org/1999/xlink" x="0px" y="0px"
	 viewBox="0 0 33 32" style="enable-background:new 0 0 33 32;" xml:space="preserve">
<style type="text/css">
	.st0{fill:#FFFFFF;}
</style>
<g>
	<g id="Capa_1_00000085234501332384898830000003104348771736473223_">
		<path id="Vector" class="st0" d="M19,13.8c-0.3,0-0.5,0.2-0.5,0.5v5.4h-4.6v-5.2h-1v6.1h6.6v-6.4C19.5,14,19.3,13.8,19,13.8
			L19,13.8z"/>
		<path id="Vector_2" class="st0" d="M8.3,15v-0.7c0-0.3-0.2-0.5-0.5-0.5c-0.3,0-0.5,0.2-0.5,0.5v6.4h3.8v-1H8.3L8.3,15L8.3,15z"/>
		<path id="Vector_3" class="st0" d="M13.8,4.9c-0.2-0.2-0.5-0.2-0.7,0L8.3,9.5V6.4h-1v4.1l-2.2,2.1C5,12.7,5,13,5.1,13.2
			c0.2,0.2,0.5,0.2,0.7,0l7.6-7.3l7.6,7.3c0.1,0.1,0.2,0.1,0.4,0.1c0.1,0,0.3,0,0.4-0.1c0.2-0.2,0.2-0.5,0-0.7L13.8,4.9L13.8,4.9z"
			/>
		<path id="Vector_4" class="st0" d="M32,26.3l-5.1-5.1c-0.2-0.2-0.5-0.2-0.7,0c-0.2,0.2-0.2,0.5,0,0.7l5.1,5.1c1,0.9,1,2.5,0,3.4
			c-0.5,0.5-1.1,0.7-1.7,0.7s-1.2-0.2-1.7-0.7l-5-5c-0.2-0.2-0.5-0.2-0.7,0c-0.2,0.2-0.2,0.5,0,0.7l5,5c0.6,0.6,1.5,1,2.4,1
			c0.9,0,1.8-0.4,2.4-1C33.3,29.7,33.3,27.6,32,26.3L32,26.3z"/>
		<path id="Vector_5" class="st0" d="M26.8,13.3C26.8,6,20.8,0,13.4,0C6,0,0,6,0,13.3c0,7.3,6,13.3,13.4,13.3
			C20.8,26.6,26.8,20.6,26.8,13.3z M13.4,25.6C6.6,25.6,1,20.1,1,13.3C1,6.5,6.6,1,13.4,1c6.9,0,12.4,5.5,12.4,12.3
			C25.8,20.1,20.3,25.6,13.4,25.6L13.4,25.6z"/>
	</g>
</g>
</svg>
