<?xml version="1.0" encoding="utf-8"?>
<!-- Generator: Adobe Illustrator 28.2.0, SVG Export Plug-In . SVG Version: 6.00 Build 0)  -->
<svg version="1.1" id="Capa_1" xmlns="http://www.w3.org/2000/svg" xmlns:xlink="http://www.w3.org/1999/xlink" x="0px" y="0px"
	 viewBox="0 0 34 32" style="enable-background:new 0 0 34 32;" xml:space="preserve">
<style type="text/css">
	.st0{fill:#FFFFFF;}
</style>
<g>
	<g id="Capa_1_00000133514811649809987120000010661905461054886298_">
		<path id="Vector" class="st0" d="M32.1,0H1.9C0.9,0,0,0.8,0,1.9v19.9c0,1,0.9,1.9,1.9,1.9h1.9v-1H1.9c-0.5,0-0.9-0.4-0.9-0.9V1.9
			C1,1.4,1.4,1,1.9,1h30.2C32.6,1,33,1.4,33,1.9v19.9c0,0.5-0.4,0.9-0.9,0.9H19.3v1h12.8c1.1,0,1.9-0.8,1.9-1.9V1.9
			C34,0.8,33.1,0,32.1,0L32.1,0z"/>
		<path id="Vector_2" class="st0" d="M31.5,4.9H2.5v1h28.9V4.9z"/>
		<path id="Vector_3" class="st0" d="M31.5,9.6H2.5v1h28.9V9.6z"/>
		<path id="Vector_4" class="st0" d="M17.3,21.2h-1.1v-2.3c0-2.6-2.1-4.6-4.7-4.6c-2.6,0-4.7,2.1-4.7,4.6v2.3H5.8
			c-0.3,0-0.5,0.2-0.5,0.5v8.4c0,1.1,0.9,1.9,2,1.9h8.6c1.1,0,2-0.9,2-1.9v-8.4C17.8,21.4,17.6,21.2,17.3,21.2L17.3,21.2z
			 M16.9,22.8v7.3c0,0.5-0.4,1-1,1H7.2c-0.5,0-1-0.4-1-1v-7.9h10.6L16.9,22.8L16.9,22.8z M7.8,19.7v-0.8c0-2,1.7-3.7,3.7-3.7
			c2,0,3.7,1.6,3.7,3.7v2.3H7.8V19.7z"/>
		<path id="Vector_5" class="st0" d="M11.6,28.7c0.3,0,0.5-0.2,0.5-0.5v-3.1c0-0.3-0.2-0.5-0.5-0.5s-0.5,0.2-0.5,0.5v3.1
			C11.1,28.5,11.3,28.7,11.6,28.7z"/>
		<path id="Vector_6" class="st0" d="M28.7,15.2h-7.3c-0.3,0-0.5,0.2-0.5,0.5s0.2,0.5,0.5,0.5h7.3c0.3,0,0.5-0.2,0.5-0.5
			S29,15.2,28.7,15.2z"/>
		<path id="Vector_7" class="st0" d="M28.7,17.7h-7.3c-0.3,0-0.5,0.2-0.5,0.5c0,0.3,0.2,0.5,0.5,0.5h7.3c0.3,0,0.5-0.2,0.5-0.5
			C29.2,17.9,29,17.7,28.7,17.7z"/>
	</g>
</g>
</svg>
